<?xml version="1.0" encoding="UTF-8"?>
<svg id="Layer_1" xmlns="http://www.w3.org/2000/svg" version="1.1" viewBox="0 0 68.27 30.1">
  <!-- Generator: Adobe Illustrator 30.1.0, SVG Export Plug-In . SVG Version: 2.1.1 Build 136)  -->
  <defs>
    <style>
      .st0 {
        fill: #fff;
      }

      .st1 {
        fill: #6d276d;
        stroke: #fff;
        stroke-miterlimit: 10;
        stroke-width: .1px;
      }

      .st2 {
        fill: #ec691f;
      }
    </style>
  </defs>
  <rect class="st1" x=".05" y=".05" width="68.17" height="30"/>
  <polygon class="st2" points="14.48 15.53 17.01 15.53 15.74 12.51 14.48 15.53"/>
  <path class="st2" d="M20.6,3.02c-6.65,0-12.03,5.39-12.03,12.03s5.39,12.03,12.03,12.03,12.03-5.39,12.03-12.03S27.24,3.02,20.6,3.02M19.33,19.43c-.47,0-.78-.27-.97-.69l-.61-1.43h-4.02l-.64,1.5c-.17.39-.51.63-.93.63-.52,0-.93-.42-.93-.94,0-.14.05-.29.12-.43l3.18-7.19c.22-.5.63-.8,1.17-.8h.12c.55,0,.94.3,1.16.8l3.18,7.19c.07.14.1.27.1.4,0,.54-.42.97-.95.97ZM28.96,15.37c0,2.77-1.55,4.12-4,4.12s-3.95-1.37-3.95-4.06v-4.29c0-.56.44-1,1.01-1s1,.44,1,1v4.24c0,1.49.74,2.26,1.97,2.26s1.97-.74,1.97-2.19v-4.3c0-.56.44-1,1-1s1,.44,1,1v4.23Z"/>
  <path class="st0" d="M35.53,8.8l1.35-3.05c.09-.21.27-.34.5-.34h.05c.23,0,.4.13.49.34l1.35,3.05c.03.06.04.12.04.17,0,.23-.18.41-.4.41-.2,0-.33-.12-.41-.29l-.26-.61h-1.71l-.27.64c-.07.17-.22.27-.39.27-.22,0-.39-.18-.39-.4,0-.06.02-.12.05-.18M37.93,7.73l-.54-1.28-.54,1.28h1.07Z"/>
  <path class="st0" d="M39.62,7.69v-1.82c0-.24.19-.43.43-.43s.43.19.43.43v1.8c0,.63.32.96.84.96s.84-.32.84-.93v-1.83c0-.24.19-.43.43-.43s.43.19.43.43v1.79c0,1.17-.66,1.75-1.7,1.75s-1.68-.58-1.68-1.72"/>
  <path class="st0" d="M35.64,13.95c-.09-.07-.16-.19-.16-.32,0-.22.18-.39.4-.39.11,0,.19.04.24.08.29.22.61.35.99.35.35,0,.56-.14.56-.37h0c0-.23-.13-.34-.78-.5-.78-.2-1.28-.42-1.28-1.18h0c0-.71.56-1.18,1.36-1.18.47,0,.88.12,1.23.34.09.06.19.17.19.34,0,.22-.18.39-.4.39-.08,0-.15-.02-.22-.06-.28-.17-.55-.26-.81-.26-.33,0-.5.15-.5.34h0c0,.27.17.35.84.52.79.21,1.23.49,1.23,1.16h0c0,.78-.59,1.21-1.42,1.21-.51,0-1.02-.16-1.46-.47"/>
  <path class="st0" d="M39.03,10.89c0-.24.19-.43.43-.43h.09c.18,0,.31.09.39.22l1.03,1.68,1.03-1.68c.09-.14.21-.22.38-.22h.09c.24,0,.43.19.43.43v3.08c0,.24-.19.43-.43.43s-.42-.19-.42-.43v-1.93l-.75,1.15c-.09.13-.2.22-.35.22s-.27-.08-.35-.22l-.74-1.13v1.93c0,.23-.19.42-.42.42s-.42-.18-.42-.42v-3.09Z"/>
  <path class="st0" d="M43.4,13.82l1.35-3.05c.09-.21.27-.34.5-.34h.05c.23,0,.4.13.49.34l1.35,3.05c.03.06.04.12.04.17,0,.23-.18.41-.4.41-.2,0-.33-.12-.41-.29l-.26-.61h-1.7l-.27.64c-.07.17-.22.27-.39.27-.22,0-.39-.18-.39-.4,0-.06.02-.12.05-.18M45.8,12.74l-.54-1.28-.54,1.28h1.07Z"/>
  <path class="st0" d="M47.64,10.88c0-.24.19-.43.43-.43s.43.19.43.43v2.71h1.58c.22,0,.39.17.39.39s-.17.39-.39.39h-2c-.24,0-.43-.19-.43-.43v-3.06Z"/>
  <path class="st0" d="M50.84,10.88c0-.24.19-.43.43-.43s.43.19.43.43v2.71h1.58c.22,0,.39.17.39.39s-.17.39-.39.39h-2c-.24,0-.43-.19-.43-.43v-3.06Z"/>
  <path class="st0" d="M35.48,15.93c0-.24.19-.43.43-.43h2.17c.22,0,.39.17.39.39s-.17.39-.39.39h-1.74v.82h1.49c.22,0,.39.17.39.39s-.17.39-.39.39h-1.49v1.11c0,.24-.19.43-.43.43s-.43-.19-.43-.43v-3.06Z"/>
  <path class="st0" d="M38.93,15.9c0-.24.19-.43.43-.43s.43.19.43.43v3.09c0,.24-.19.43-.43.43s-.43-.19-.43-.43v-3.09Z"/>
  <path class="st0" d="M40.53,15.91c0-.24.19-.43.43-.43h.09c.2,0,.33.1.44.25l1.64,2.16v-2c0-.23.19-.42.42-.42s.42.19.42.42v3.08c0,.24-.19.43-.43.43h-.03c-.2,0-.33-.1-.44-.25l-1.7-2.24v2.08c0,.23-.19.42-.42.42s-.42-.19-.42-.42v-3.08Z"/>
  <path class="st0" d="M44.46,18.83l1.35-3.05c.09-.21.27-.34.5-.34h.05c.23,0,.4.13.49.34l1.35,3.05c.03.06.04.12.04.17,0,.23-.18.41-.4.41-.2,0-.33-.12-.41-.29l-.26-.61h-1.71l-.27.64c-.07.17-.22.27-.39.27-.22,0-.39-.18-.39-.4,0-.06.02-.12.05-.18M46.86,17.76l-.54-1.28-.54,1.28h1.07Z"/>
  <path class="st0" d="M48.7,15.91c0-.24.19-.43.43-.43h.09c.2,0,.33.1.44.25l1.64,2.16v-2c0-.23.19-.42.42-.42s.42.19.42.42v3.08c0,.24-.19.43-.43.43h-.03c-.2,0-.33-.1-.44-.25l-1.7-2.24v2.08c0,.23-.19.42-.42.42s-.42-.19-.42-.42v-3.08Z"/>
  <path class="st0" d="M52.68,17.45h0c0-1.11.83-2.02,2.02-2.02.58,0,.97.16,1.3.39.09.07.17.19.17.34,0,.23-.19.42-.42.42-.12,0-.19-.04-.25-.08-.24-.18-.49-.28-.79-.28-.65,0-1.12.54-1.12,1.21h0c0,.68.46,1.23,1.12,1.23.36,0,.6-.11.84-.3.07-.05.15-.09.25-.09.22,0,.4.18.4.39,0,.13-.07.24-.14.3-.35.3-.76.49-1.38.49-1.14,0-1.99-.88-1.99-1.99"/>
  <path class="st0" d="M56.71,18.95v-3.02c0-.24.19-.43.43-.43h2.18c.21,0,.38.17.38.38s-.17.38-.38.38h-1.76v.79h1.48c.21,0,.38.17.38.38s-.17.38-.38.38h-1.48v.81h1.75c.21,0,.38.17.38.38s-.17.38-.38.38h-2.18c-.24,0-.43-.19-.43-.43"/>
  <path class="st0" d="M35.48,20.98c0-.24.19-.43.43-.43h1.37c.44,0,.79.12,1.01.34.18.18.27.39.27.66h0c0,.45-.23.69-.51.85.45.17.73.43.73.95h0c0,.72-.58,1.07-1.45,1.07h-1.42c-.24,0-.43-.19-.43-.43v-3.02ZM37.1,22.12c.38,0,.61-.12.61-.41h0c0-.27-.2-.41-.56-.41h-.84v.82h.79ZM37.32,23.68c.38,0,.6-.13.6-.42h0c0-.27-.19-.43-.63-.43h-.99v.85h1.01Z"/>
  <path class="st0" d="M39.04,23.85l1.35-3.05c.09-.21.27-.34.5-.34h.05c.23,0,.4.13.49.34l1.35,3.05c.03.06.04.12.04.17,0,.23-.18.41-.4.41-.2,0-.33-.12-.41-.29l-.26-.61h-1.71l-.27.64c-.07.17-.22.27-.39.27-.22,0-.39-.18-.39-.4,0-.06.02-.12.05-.18M41.44,22.77l-.54-1.28-.54,1.28h1.07Z"/>
  <path class="st0" d="M43.27,20.92c0-.24.19-.43.43-.43h.09c.2,0,.33.1.44.25l1.64,2.16v-2c0-.23.19-.42.42-.42s.42.19.42.42v3.08c0,.24-.19.43-.43.43h-.03c-.2,0-.33-.1-.44-.25l-1.7-2.24v2.08c0,.23-.19.42-.42.42s-.42-.19-.42-.42v-3.08Z"/>
  <path class="st0" d="M47.42,20.91c0-.24.19-.43.43-.43s.43.19.43.43v1.3l1.57-1.56c.11-.11.21-.17.36-.17.24,0,.39.18.39.39,0,.13-.06.23-.16.32l-1.09,1.02,1.19,1.49c.07.08.12.17.12.3,0,.24-.18.42-.43.42-.17,0-.27-.08-.36-.21l-1.11-1.45-.49.45v.77c0,.24-.19.43-.43.43s-.43-.19-.43-.43v-3.09Z"/>
</svg>